<svg viewBox="0 0 459 459" fill="none" xmlns="http://www.w3.org/2000/svg"><path d="M297.454 144.445h48.598L234.468 264.908c0-4.408-.378-8.908-2.014-13.408s-8.5-18-26-29.5c14-1 17-.5 23-5.5zm-53.485 118.772 24.71-22.893 75.775 81.154h-46.5z" fill="#ff9233"/><path d="M157.166 144.5H228.5c0 11.202-4.417 24.412-22.967 32.432-4.553 1.969-9.554 2.568-14.515 2.568h-29.822c-4.444 0-9.096.363-12.562 3.144-2.712 2.177-5.393 5.683-5.634 11.106-.349 7.846 3.923 11.679 6.54 13.28 1.247.763 2.631 1.261 3.972 1.843L178 219.5l20.699 9.966c4.18 2.013 8.131 4.538 11.388 7.842 12.33 12.511 14.891 22.771 14.167 40.083-.128 3.064-.579 6.126-1.569 9.029-5.903 17.297-19.098 28.775-36.217 33.82-3.268.963-6.685 1.272-10.092 1.295L108.5 322c0-12.46 7.667-27.902 24.18-33.352 2.823-.931 5.815-1.184 8.786-1.256l31.233-.752c3.854-.093 7.935-.32 10.958-2.713 6.498-5.144 8.092-15.608 1.484-21.912-1.601-1.529-3.648-2.457-5.671-3.357-8.064-3.589-30.586-13.719-47.508-22.368-2.314-1.182-4.538-2.538-6.529-4.207C112.112 220.914 106.392 206.559 109 187c1.832-13.736 10.372-32.923 34.068-40.667 4.529-1.479 9.333-1.833 14.098-1.833" fill="#f3f4f6"/></svg>